# xmcd
#
# Track frame offsets: 
#        150
#        14352
#        28160
#        39827
#        55296
#        66631
#        80760
#        93883
#        106684
#        120611
#        134313
#        147992
#        162251
#        175396
#        214680
#        230042
#        242671
#        255120
#        269984
#        282764
#
# Disc length: 3959 seconds
#
# Revision: 0
# Processed by: cddbd v1.5.2PL0 Copyright (c) Steve Scherf et al.
# Submitted via: ExactAudioCopy v0.95b3
#
DISCID=210f7514
DTITLE=Various Artist - The Modern Records Blues Story
DYEAR=2003
DGENRE=Blues
TTITLE0=John Lee Hooker - Boogie Chillen [1949]
TTITLE1=Pee Wee Crayton - Blues After Hours [1948]
TTITLE2=Smokey Hogg - Little School Girl [1950]
TTITLE3=Floyd Dixon - Dallas Blues [1949]
TTITLE4=Jimmy Witherspoon - Big Fine Girl [1949]
TTITLE5=Jimmy Nelson - T-99 (My Sweet Little Honey Dripper) [1951]
TTITLE6=Lightnin' Hopkins - Jake Head Boogie [19??]
TTITLE7=Roy Hawkins - The Thrill Is Gone [1951]
TTITLE8=Howlin' Wolf - Riding In The Moonlight [1951]
TTITLE9=Bobby Bland - Drifting From Town To Town [1951]
TTITLE10=B.B. King - Three O'Clock Blues [19??]
TTITLE11=Rosco Gordon - No More Doggin' [1952]
TTITLE12=Jimmy McCracklin - Couldn't Be A Dream [1954]
TTITLE13=Ike Turner - All The Blues All The Time (Medley) [1954]
TTITLE14=Johnny ''Guitar'' Watson - Three Hours Past Midnight [19??]
TTITLE15=Elmore James - Standing At The Crossroads [1954]
TTITLE16=Etta James - W-O-M-A-N [19??]
TTITLE17=Rufus Thomas - I'm Steady Holdin' On [19??]
TTITLE18=Little Milton - Love At First Sight [1957]
TTITLE19=Lowell Fulson - Tramp [1967]
EXTD=
EXTT0=
EXTT1=
EXTT2=
EXTT3=
EXTT4=
EXTT5=
EXTT6=
EXTT7=
EXTT8=
EXTT9=
EXTT10=
EXTT11=
EXTT12=
EXTT13=
EXTT14=
EXTT15=
EXTT16=
EXTT17=
EXTT18=
EXTT19=
PLAYORDER=
